<?xml version="1.0" encoding="utf-8"?>
<!-- Generator: Adobe Illustrator 16.0.0, SVG Export Plug-In . SVG Version: 6.00 Build 0)  -->
<!DOCTYPE svg PUBLIC "-//W3C//DTD SVG 1.1//EN" "http://www.w3.org/Graphics/SVG/1.1/DTD/svg11.dtd">
<svg version="1.1" id="Layer_1" xmlns="http://www.w3.org/2000/svg" xmlns:xlink="http://www.w3.org/1999/xlink" x="0px" y="0px"
	 width="800.475px" height="646.106px" viewBox="0 0 800.475 646.106" enable-background="new 0 0 800.475 646.106"
	 xml:space="preserve">
<g>
	<path fill="#075FA9" d="M395.817,0.038C314.426,1.786,249.801,69.283,251.69,150.743c1.736,81.362,69.189,145.918,150.659,144.205
		c81.421-1.842,145.989-69.26,144.216-150.715C544.736,62.809,477.25-1.781,395.817,0.038 M401.757,267.702
		c-43.497,0.902-82.105-21.126-104.427-54.998c10.344,4.703,22.461,7.935,35.527,8.954c27.373,2.247,52.022-5.296,66.167-18.396
		c14.04,13.1,38.653,20.643,66.083,18.396c13.31-1.066,25.567-4.415,36.002-9.29C479.89,244.917,443.551,266.752,401.757,267.702
		 M390.95,74.892c0,0,29.793-6.546,28.461,33.856c-0.451,19.542-3.916,38.518-7.982,49.152c-3.113,8.605-7.527,8.883-10.98,8.953
		C400.321,122.79,390.95,74.892,390.95,74.892 M476.079,181.324c-22.981,9.067-45.756,10.329-62.055,5.166
		c14.746-18.593,20.667-41.83,23.307-57.885c2.295-13.414,3.277-28.022,2.028-43.243c-2.675-33.823-30.813-36.303-40.554-37.866
		c-9.661-1.646-33.246-1.806-33.246-1.806s14.445,57.627,17.701,140.981c-16.289,4.938-38.738,3.583-61.293-5.347
		c-19.531-7.612-35.098-19.172-44.537-31.519l-0.163-1.23C275.715,81.238,329.105,25.453,396.44,23.981
		c67.242-1.504,123.041,51.939,124.548,119.16c0.059,2.189-0.196,4.239-0.196,6.417C511.27,162.01,495.621,173.655,476.079,181.324"
		/>
	<polyline fill="#075FA9" points="18.456,644.825 0.555,569.846 16.053,569.846 27.358,621.346 41.081,569.846 59.081,569.846 
		72.215,622.228 83.724,569.846 98.963,569.846 80.767,644.825 64.695,644.825 49.762,588.768 34.87,644.825 	"/>
	<path fill="#075FA9" d="M168.532,644.815h-16.466l-6.548-17.027h-29.975l-6.175,17.027H93.285l29.224-74.979h16.003
		 M140.657,615.166l-10.334-27.845l-10.127,27.845H140.657z"/>
	<polyline fill="#075FA9" points="176.731,644.825 176.731,569.846 191.463,569.846 222.15,619.917 222.15,569.846 236.208,569.846 
		236.208,644.825 221.03,644.825 190.794,595.924 190.794,644.825 	"/>
	<path fill="#075FA9" d="M252.17,569.846h27.682c6.24,0,10.992,0.461,14.262,1.423c4.413,1.284,8.166,3.581,11.301,6.899
		c3.141,3.317,5.527,7.357,7.17,12.144c1.631,4.807,2.455,10.703,2.455,17.725c0,6.174-0.768,11.498-2.303,15.965
		c-1.881,5.452-4.561,9.874-8.037,13.247c-2.625,2.551-6.164,4.554-10.637,5.99c-3.34,1.034-7.806,1.576-13.402,1.576h-28.49
		 M267.315,582.528v49.646h11.309c4.217,0,7.277-0.229,9.148-0.711c2.457-0.607,4.491-1.648,6.115-3.117
		c1.619-1.454,2.939-3.876,3.965-7.239c1.016-3.356,1.543-7.938,1.543-13.727c0-5.792-0.527-10.248-1.543-13.358
		c-1.025-3.099-2.451-5.521-4.309-7.271c-1.823-1.729-4.166-2.892-7.006-3.513c-2.121-0.485-6.248-0.711-12.423-0.711H267.315z"/>
	<path fill="#075FA9" d="M395.499,644.815h-16.461l-6.561-17.027h-29.965l-6.191,17.027h-16.056l29.208-74.979h15.997
		 M367.624,615.166l-10.331-27.845l-10.128,27.845H367.624z"/>
	<path fill="#075FA9" d="M463.634,617.254v-12.622h32.64V634.5c-3.173,3.061-7.77,5.758-13.793,8.09
		c-6,2.353-12.112,3.516-18.274,3.516c-7.853,0-14.686-1.646-20.52-4.938c-5.835-3.298-10.204-8.004-13.149-14.112
		c-2.924-6.122-4.402-12.778-4.402-19.99c0-7.788,1.646-14.729,4.916-20.803c3.277-6.07,8.071-10.721,14.379-13.963
		c4.792-2.488,10.782-3.737,17.957-3.737c9.306,0,16.576,1.954,21.81,5.852c5.232,3.907,8.605,9.305,10.104,16.19l-15.033,2.814
		c-1.072-3.676-3.053-6.591-5.965-8.722c-2.913-2.128-6.55-3.189-10.915-3.189c-6.63,0-11.882,2.089-15.784,6.285
		c-3.916,4.192-5.865,10.397-5.865,18.668c0,8.909,1.973,15.566,5.947,20.033c3.939,4.445,9.131,6.67,15.546,6.67
		c3.166,0,6.351-0.624,9.542-1.874c3.179-1.235,5.918-2.749,8.204-4.532v-9.503"/>
	<path fill="#075FA9" d="M510.298,644.815v-74.979h31.86c8.016,0,13.841,0.67,17.464,2.013c3.625,1.347,6.548,3.748,8.73,7.174
		c2.18,3.46,3.268,7.403,3.268,11.835c0,5.619-1.65,10.273-4.958,13.938c-3.304,3.657-8.253,5.966-14.835,6.92
		c3.271,1.912,5.979,4.005,8.103,6.307c2.133,2.287,5.006,6.326,8.629,12.178l9.143,14.615h-18.088L548.656,628.5
		c-3.888-5.827-6.548-9.499-7.974-11.016c-1.44-1.541-2.954-2.562-4.564-3.131c-1.588-0.548-4.141-0.844-7.623-0.844h-3.061v31.306
		 M525.434,601.533h11.197c7.268,0,11.801-0.285,13.598-0.906c1.807-0.617,3.229-1.676,4.261-3.179
		c1.014-1.499,1.534-3.37,1.534-5.615c0-2.527-0.686-4.564-2.015-6.108c-1.353-1.565-3.252-2.555-5.718-2.957
		c-1.228-0.163-4.899-0.239-11.031-0.239h-11.826V601.533z"/>
	<path fill="#075FA9" d="M582.822,607.797c0-7.643,1.154-14.06,3.439-19.241c1.701-3.817,4.029-7.236,6.973-10.267
		c2.944-3.067,6.188-5.299,9.691-6.777c4.677-1.972,10.065-2.957,16.17-2.957c11.038,0,19.887,3.425,26.533,10.283
		c6.622,6.861,9.924,16.388,9.924,28.608c0,12.099-3.279,21.556-9.85,28.399c-6.589,6.845-15.392,10.249-26.409,10.249
		c-11.156,0-20.012-3.387-26.591-10.207C586.123,629.093,582.822,619.722,582.822,607.797 M598.436,607.273
		c0,8.496,1.952,14.931,5.873,19.311c3.927,4.4,8.898,6.58,14.934,6.58c6.043,0,10.99-2.169,14.863-6.524
		c3.869-4.349,5.798-10.87,5.798-19.574c0-8.587-1.885-14.993-5.652-19.23c-3.768-4.225-8.762-6.338-15.009-6.338
		c-6.233,0-11.27,2.145-15.078,6.428C600.342,592.197,598.436,598.656,598.436,607.273"/>
	<path fill="#075FA9" d="M667.274,569.846h15.145v40.599c0,6.452,0.181,10.631,0.567,12.536c0.637,3.075,2.176,5.539,4.619,7.393
		c2.442,1.86,5.769,2.79,10.003,2.79c4.298,0,7.536-0.874,9.714-2.627c2.18-1.763,3.495-3.922,3.944-6.483
		c0.438-2.537,0.677-6.799,0.677-12.744v-41.463h15.116v39.37c0,9.003-0.404,15.361-1.222,19.085
		c-0.81,3.725-2.321,6.854-4.519,9.42c-2.205,2.547-5.139,4.595-8.826,6.107c-3.684,1.51-8.496,2.277-14.42,2.277
		c-7.174,0-12.604-0.83-16.291-2.479c-3.709-1.658-6.627-3.807-8.782-6.435c-2.135-2.661-3.56-5.421-4.248-8.333
		c-0.987-4.289-1.478-10.641-1.478-19.025"/>
	<path fill="#075FA9" d="M743.028,644.815v-74.969h24.303c9.209,0,15.221,0.351,18.015,1.104c4.296,1.121,7.892,3.585,10.783,7.351
		c2.899,3.755,4.347,8.628,4.347,14.607c0,4.609-0.835,8.469-2.508,11.603c-1.662,3.141-3.789,5.605-6.359,7.403
		c-2.572,1.794-5.188,2.957-7.861,3.533c-3.603,0.725-8.86,1.097-15.699,1.097h-9.867v28.271 M758.18,582.528v21.261h8.275
		c5.969,0,9.965-0.396,11.969-1.173c2.012-0.777,3.587-2.017,4.726-3.679c1.168-1.688,1.723-3.603,1.723-5.838
		c0-2.714-0.796-4.977-2.388-6.743c-1.619-1.773-3.644-2.878-6.1-3.325c-1.814-0.34-5.437-0.503-10.894-0.503H758.18z"/>
	<path fill="#075FA9" d="M669.313,466.511v23.375c6.032-0.875,39.205-10.731,50.527-28.008v35.595h11.061
		c18.05,0,17.195-12.186,17.195-12.186v-58.761h15.281v-15.25h-15.281v-14.803H719.84v14.803h-51.129v15.25h50.907
		C704.193,455.221,674.302,465.012,669.313,466.511"/>
	<path fill="#075FA9" d="M799.531,378.592c-0.576-4.643-4.364-8.268-9.158-8.268H639.188c-5.213,0-9.359,4.172-9.412,9.329v133.038
		c0.04,4.872,3.808,8.78,8.603,9.2h152.77c4.704-0.42,8.425-4.196,8.608-8.999 M771.286,507.493H658.031V385.521h113.255V507.493z"
		/>
	<path fill="#075FA9" d="M211.507,394.777c0,0,10.72,2.437,19.897,6.546c9.84,3.638,18.455,8.136,18.938,8.399l8.574-20.029
		c0,0-10.292-6.358-18.957-9.197c-9.094-3.698-19.924-5.714-19.924-5.714l-8.699,20.322l0.051,0.031 M0.002,383.323v11.913h49.859
		v34.501c0,61.059-46.217,66.521-46.217,66.521l-0.023,24.114c0,0,66.033-3.593,73.727-77.444h61.984v56.079h-33.93v15.076
		c0,0-0.199,5.935,6.086,5.935h40.773c16.053,0,15.35-12.206,15.35-12.206v-76.947c0,0,0.166-8.937-10.891-8.937H78.129v-26.692
		h104.814V383.29c0,0,0.688-5.409-5.205-5.409H5.658C-0.294,377.88,0.002,383.323,0.002,383.323 M389.659,502.249
		c0,0-102.463,0.194-107.577,0c-20.508-0.722-28.642-14.542-27.919-45.732l-0.096,0.052c0.186-2.724,0.348-5.352,0.348-8.318
		v-22.663c0,0,0.854-9.43-8.102-9.43h-39.479v17.356h20.572v29.066c0,28.019-20.53,32.794-20.53,32.794l-0.042,24.197
		c0,0,20.015-0.209,34.1-19.752c5.564,11.901,16.918,21.758,35.637,22.125c6.814,0.143,82.174,0.024,105.965,0
		c7.678,0,7.123-6.174,7.123-6.174V502.249z M503.676,405.374h-46.764v-7.212h46.764V405.374z M503.676,427.335h-46.764v-7.181
		h46.764V427.335z M503.676,449.367h-46.764v-7.239h46.764V449.367z M531.939,370.62h-20.883c0,0-7.38,0.122-7.38,6.789v5.957
		h-46.252l0.059-8.224c0,0,0.031-5.396-8.279-2.374c-5.486,2.014-17.947,6.952-25.824,10.095c-7.308,3.163-7.019,9.78-7.019,9.78
		v15.326l12.282-4.512v49.771c0,0-0.719,10.895,9.418,10.895h55.629l0.021,7.591h-77.35v15.336h41.634
		c-11.596,10.687-32.604,14.685-41.634,15.375v19.519c5.342-0.107,48.021-0.367,76.782-34.894h0.567l0.061,34.894h11.024
		c17.492,0,17.178-12.206,17.178-12.206V487.05h0.621c29.608,35.498,71.435,34.786,76.797,34.894V501.95
		c-7.358-0.423-31.237-3.751-41.67-14.899h41.605v-15.336h-77.354v-7.591h77.418v-14.757h-67.452v-7.239h67.452v-14.792h-67.452
		v-7.181h67.452v-14.781h-67.452v-7.212h67.452v-9.813c0,0,0.438-4.982-5.331-4.982h-62.121V370.62z M341.414,370.371h-28.239
		v30.581h-48.258v17.363h48.145c-2.51,37.202-42.365,48.242-48.145,48.242v20.493c4.912,0.601,43.025-2.627,62.285-34.07
		c19.279,31.53,57.537,34.671,62.457,34.07v-20.493c-5.787,0-45.635-10.273-48.111-48.242h48.111v-17.363h-48.245V370.371z"/>
	<path fill="#075FA9" d="M518.209,16.879c0-8.028,5.954-14.062,13.6-14.062c7.564,0,13.519,6.034,13.519,14.062
		c0,8.153-5.954,14.144-13.519,14.144C524.164,31.023,518.209,25.033,518.209,16.879 M531.809,33.838
		c9.104,0,16.888-7.169,16.888-16.958c0-9.717-7.784-16.866-16.888-16.866c-9.187,0-16.959,7.149-16.959,16.866
		C514.85,26.668,522.623,33.838,531.809,33.838 M528.278,18.212h3.357l5.071,8.456h3.279l-5.479-8.572
		c2.823-0.37,4.993-1.901,4.993-5.387c0-3.858-2.26-5.547-6.813-5.547h-7.331v19.506h2.922V18.212z M528.278,15.708V9.663h3.958
		c2.041,0,4.217,0.453,4.217,2.861c0,3.01-2.211,3.184-4.692,3.184H528.278z"/>
</g>
</svg>
